<?xml version="1.0" standalone="no"?>
<!DOCTYPE svg PUBLIC "-//W3C//DTD SVG 20010904//EN"
 "http://www.w3.org/TR/2001/REC-SVG-20010904/DTD/svg10.dtd">
<svg version="1.0" xmlns="http://www.w3.org/2000/svg"
 width="1533.000000pt" height="1439.000000pt" viewBox="0 0 1533.000000 1439.000000"
 preserveAspectRatio="xMidYMid meet">
<metadata>
Created by potrace 1.15, written by Peter Selinger 2001-2017
</metadata>
<g transform="translate(0.000000,1439.000000) scale(0.100000,-0.100000)"
fill="#000000" stroke="none">
<path d="M7589 13495 c-28 -14 -121 -26 -114 -15 3 4 -2 11 -11 14 -9 4 -30
-6 -52 -24 -23 -19 -38 -26 -41 -18 -2 6 6 20 19 30 12 10 17 18 10 18 -7 0
-26 -14 -43 -31 -29 -31 -32 -31 -93 -26 -35 4 -73 11 -83 17 -11 5 -35 10
-55 10 -19 0 -47 5 -62 11 -20 7 -53 7 -114 -1 -76 -10 -135 -16 -180 -19 -9
-1 -33 -17 -54 -37 -29 -27 -43 -34 -59 -29 -38 11 -50 10 -55 -4 -3 -8 0 -11
7 -7 6 4 11 5 11 2 0 -7 -144 -76 -157 -76 -6 0 -16 -7 -23 -15 -7 -8 -21 -15
-32 -15 -19 0 -136 -87 -241 -179 -28 -24 -74 -59 -104 -78 -29 -18 -53 -37
-53 -41 0 -4 -15 -16 -32 -27 -43 -24 -78 -62 -78 -82 0 -9 -24 -39 -54 -67
-63 -60 -89 -98 -81 -118 6 -15 -18 -48 -35 -48 -15 0 -19 -41 -4 -47 18 -7
18 -28 -2 -47 -24 -24 -44 -20 -44 10 0 35 -10 29 -60 -34 -23 -30 -57 -63
-76 -74 -39 -23 -38 -22 -22 -48 10 -15 9 -22 -5 -38 -9 -10 -19 -32 -21 -48
-7 -49 -18 -74 -31 -74 -7 0 -15 -7 -19 -15 -3 -9 -18 -15 -38 -15 -54 -1 -98
-57 -64 -81 5 -4 -1 -10 -13 -14 -23 -7 -28 -29 -9 -41 7 -5 5 -11 -7 -21 -24
-17 -35 -17 -35 2 0 23 -24 18 -54 -11 -31 -32 -34 -54 -6 -54 23 0 27 -15 7
-27 -7 -4 -19 -22 -26 -40 -11 -28 -17 -31 -42 -26 -24 4 -30 1 -41 -22 -9
-21 -9 -31 0 -46 10 -16 9 -31 -4 -77 -9 -31 -23 -64 -30 -73 -8 -8 -14 -20
-14 -25 0 -6 -16 -25 -35 -44 -19 -19 -35 -43 -35 -55 0 -11 -10 -25 -22 -30
-13 -6 -27 -22 -32 -36 -11 -31 0 -83 15 -73 7 4 9 0 5 -12 -3 -11 -7 -71 -8
-134 -3 -114 -11 -144 -40 -138 -8 2 -14 -9 -16 -27 -2 -16 -8 -36 -14 -42 -7
-9 -7 -13 1 -13 6 0 11 -7 11 -16 0 -8 5 -12 10 -9 6 4 7 11 4 17 -4 6 1 8 12
6 11 -2 20 -13 22 -26 4 -24 18 -30 25 -9 10 29 16 -3 6 -37 -8 -27 -7 -42 0
-49 6 -6 11 -20 12 -31 0 -24 16 14 45 109 10 33 32 96 50 141 17 44 35 96 39
115 3 19 20 76 37 128 23 72 28 104 23 136 -4 33 -2 44 10 48 8 4 15 16 15 29
0 12 9 32 21 44 11 12 25 41 30 63 10 44 67 139 84 141 13 1 50 51 119 158 29
45 66 92 82 104 16 13 36 32 45 43 9 11 40 31 68 45 28 14 51 28 51 33 0 4 6
7 14 7 7 0 25 10 39 23 14 12 36 30 49 40 13 10 17 15 11 12 -7 -3 -13 -1 -13
4 0 6 5 11 11 11 6 0 9 6 6 14 -6 16 29 53 40 42 4 -4 2 -10 -4 -14 -6 -4 -11
-19 -11 -34 0 -23 2 -25 15 -12 8 7 24 14 36 15 12 0 16 3 10 6 -21 8 -15 17
18 32 25 11 33 11 39 1 5 -9 9 -9 14 -1 4 6 -3 16 -16 21 -23 11 -23 11 2 5
14 -2 28 -5 32 -5 4 0 5 -6 2 -14 -3 -8 3 -16 15 -19 12 -3 19 -1 15 4 -3 5 2
6 11 3 8 -4 22 -1 30 6 9 7 18 10 22 6 3 -3 2 -6 -4 -6 -6 0 -8 -11 -5 -25 2
-14 9 -25 15 -25 6 0 8 -3 4 -6 -3 -4 1 -13 9 -21 8 -9 13 -22 10 -29 -3 -8 1
-14 9 -14 19 0 19 -8 0 -26 -16 -16 -21 -64 -7 -64 5 0 7 -13 4 -30 -2 -16 -9
-30 -14 -30 -5 0 -6 -4 -3 -10 3 -5 -5 -21 -19 -34 -14 -13 -26 -30 -26 -39 0
-8 -7 -18 -16 -21 -10 -4 -14 -12 -10 -22 4 -9 -1 -29 -11 -43 -9 -14 -18 -30
-18 -36 -3 -31 -27 -65 -45 -65 -13 0 -24 -10 -30 -26 -8 -20 -15 -25 -31 -21
-18 5 -20 2 -16 -19 2 -13 0 -24 -4 -24 -5 0 -9 -8 -9 -19 0 -10 -7 -24 -15
-31 -9 -7 -14 -19 -11 -25 2 -7 -4 -39 -14 -71 -15 -50 -22 -59 -41 -59 -13
-1 -27 4 -31 9 -4 6 -10 2 -15 -9 -5 -11 -20 -38 -33 -60 -14 -22 -24 -46 -22
-53 2 -8 -2 -20 -8 -27 -6 -7 -13 -26 -16 -42 -2 -15 -17 -38 -32 -50 -24 -20
-25 -25 -14 -43 7 -12 10 -25 7 -30 -4 -6 3 -10 14 -10 10 0 21 6 24 13 2 6 7
10 10 7 3 -3 -1 -20 -9 -38 -11 -28 -17 -32 -35 -27 -14 5 -19 4 -15 -4 4 -6
-7 -24 -23 -40 -17 -17 -26 -33 -21 -36 7 -4 4 -18 -6 -38 -33 -63 -34 -65
-19 -71 8 -3 15 -14 15 -24 0 -11 6 -25 14 -32 17 -13 12 -32 -18 -73 -19 -26
-20 -29 -4 -38 15 -8 15 -13 2 -44 -8 -19 -14 -48 -14 -64 0 -16 -5 -33 -11
-36 -6 -4 -9 -19 -8 -33 2 -15 1 -32 -3 -37 -3 -6 -6 -48 -7 -95 0 -47 -2
-118 -3 -158 -3 -62 -1 -72 14 -72 9 0 20 5 23 10 5 8 11 7 21 -1 18 -15 18
-33 -1 -49 -23 -19 -18 -30 15 -30 17 0 30 -4 30 -10 0 -5 -4 -10 -9 -10 -5 0
-11 -9 -14 -21 -4 -15 -2 -19 8 -15 9 3 12 0 8 -10 -3 -8 1 -14 10 -14 16 0
20 -35 7 -55 -4 -5 -10 -22 -14 -37 -3 -16 -11 -28 -16 -28 -6 0 -10 -5 -10
-10 0 -6 -10 -27 -23 -48 -13 -20 -21 -44 -20 -53 3 -11 -9 -25 -31 -39 -20
-12 -44 -31 -54 -43 -20 -25 -76 -57 -98 -57 -8 0 -14 -7 -14 -15 0 -8 -8 -19
-19 -24 -10 -6 -33 -33 -51 -61 -24 -38 -30 -54 -21 -63 7 -10 7 -17 -1 -25
-6 -6 -10 -29 -9 -51 5 -89 2 -131 -9 -146 -5 -5 -14 -39 -21 -75 -6 -36 -18
-87 -26 -115 -29 -98 -31 -116 -21 -148 5 -18 11 -86 12 -152 1 -66 6 -119 10
-117 13 5 38 -29 32 -45 -4 -9 -1 -20 6 -24 7 -4 13 -26 13 -47 0 -28 3 -38
12 -35 7 3 13 -2 13 -11 0 -9 -4 -16 -9 -16 -4 0 -6 -11 -3 -25 2 -14 9 -25
14 -25 5 0 6 6 2 13 -6 9 -4 9 8 -1 18 -15 68 -6 68 12 0 11 143 13 200 2 14
-2 33 -5 42 -5 12 -1 16 -9 15 -28 -2 -21 2 -28 15 -27 10 1 15 -2 12 -7 -2
-5 2 -22 11 -40 15 -28 15 -33 1 -48 -16 -17 -12 -60 7 -73 14 -9 -25 -56 -42
-50 -10 3 -12 -1 -8 -17 3 -14 0 -21 -9 -21 -27 0 -124 -87 -125 -114 -1 -16
-2 -17 -6 -3 -2 9 -8 17 -11 17 -13 -1 -46 -30 -34 -30 7 0 12 -10 12 -22 0
-12 -3 -18 -7 -15 -3 4 -12 2 -20 -4 -10 -9 -13 -8 -13 2 0 34 -49 -51 -55
-96 -14 -91 -14 -95 -4 -90 20 13 7 -11 -27 -47 -5 -6 -8 -23 -6 -37 2 -16 -4
-34 -16 -46 -14 -16 -17 -27 -10 -45 5 -13 6 -30 4 -37 -4 -9 1 -13 12 -11 11
2 16 -2 13 -12 -2 -8 -4 -20 -4 -27 0 -7 -4 -10 -8 -8 -12 8 -31 -24 -25 -43
9 -26 -3 -52 -19 -46 -7 3 -16 1 -20 -5 -3 -6 -1 -11 5 -11 6 0 8 -4 5 -10 -3
-5 -1 -10 4 -10 6 0 11 -13 11 -29 0 -39 9 -61 26 -61 8 0 14 -5 14 -11 0 -5
-4 -7 -10 -4 -5 3 -10 -1 -10 -10 0 -11 -5 -15 -16 -11 -9 3 -12 2 -9 -5 4 -6
13 -8 21 -5 7 3 16 1 19 -5 4 -5 9 -7 13 -5 4 2 16 -2 27 -10 10 -8 15 -14 9
-14 -5 0 -16 -5 -24 -10 -13 -8 -12 -11 5 -24 17 -13 18 -15 3 -16 -15 0 -15
-2 -1 -32 9 -17 16 -43 17 -57 1 -16 6 -25 14 -23 7 1 20 -5 29 -14 14 -13 14
-19 4 -36 -11 -17 -10 -22 1 -29 11 -7 11 -9 -1 -9 -9 0 -11 -8 -7 -25 4 -15
2 -25 -4 -25 -6 0 -8 5 -5 10 3 6 1 10 -4 10 -16 0 -14 -9 8 -37 15 -18 18
-30 11 -47 -6 -17 -4 -28 6 -38 13 -13 13 -17 2 -29 -19 -19 -28 -45 -20 -54
12 -11 11 -59 -1 -84 -9 -19 -9 -25 1 -28 15 -6 16 -35 1 -50 -7 -7 -8 -22 -1
-47 6 -21 7 -36 1 -36 -5 0 -9 12 -9 26 0 14 -3 23 -8 21 -12 -8 -6 -68 9 -78
12 -8 12 -10 -1 -8 -40 4 -51 -1 -45 -20 4 -12 -1 -24 -12 -33 -10 -7 -18 -19
-17 -25 1 -7 2 -23 4 -35 2 -24 5 -20 14 25 4 15 11 25 16 22 6 -3 10 -1 10 5
0 22 35 49 50 40 13 -8 12 -11 -4 -23 -11 -8 -16 -19 -12 -25 3 -6 -2 -12 -11
-14 -10 -2 -18 -10 -19 -18 -3 -44 -5 -50 -19 -50 -8 0 -15 -4 -15 -10 0 -5 3
-10 8 -10 4 0 7 -19 8 -43 1 -37 24 -114 53 -182 5 -11 17 -54 26 -95 24 -105
85 -250 216 -513 33 -64 59 -122 59 -128 0 -19 40 -99 50 -99 6 0 10 -7 10
-16 0 -9 9 -48 21 -86 11 -38 26 -103 34 -146 17 -99 82 -257 140 -341 24 -36
62 -91 82 -121 21 -30 60 -100 87 -155 27 -55 53 -107 57 -115 35 -63 79 -160
79 -172 0 -8 9 -23 20 -33 11 -10 20 -26 20 -36 0 -11 9 -24 20 -31 11 -7 20
-20 20 -30 0 -9 10 -24 23 -33 19 -13 20 -17 7 -25 -12 -8 -12 -10 5 -10 14 0
16 -3 7 -9 -10 -6 -8 -13 7 -32 l20 -24 2 30 c1 24 2 26 7 10 7 -20 24 -26 38
-13 4 4 1 14 -6 23 -7 9 -9 19 -5 23 4 4 12 -2 19 -12 6 -10 25 -37 41 -60 17
-23 42 -61 55 -85 14 -25 34 -54 45 -66 32 -34 55 -65 55 -72 0 -12 52 -53 66
-53 7 0 21 -14 31 -30 9 -17 21 -30 26 -30 13 0 77 -63 77 -75 0 -6 14 -27 30
-45 l30 -34 161 -5 c142 -5 162 -8 174 -25 13 -17 17 -16 72 33 32 29 67 51
79 51 23 0 96 37 102 52 2 4 9 8 16 8 7 0 51 26 97 58 89 60 143 92 153 92 14
0 5 -21 -11 -27 -10 -4 -31 -20 -48 -35 l-30 -29 30 7 c54 12 110 49 99 65 -3
5 2 6 10 3 9 -3 26 5 41 20 14 14 29 25 33 23 8 -2 47 25 105 75 18 15 43 33
56 40 30 16 71 55 71 68 0 6 9 10 20 10 11 0 31 13 45 29 14 15 44 36 66 46
24 11 39 25 39 35 0 11 10 20 25 24 13 3 38 20 55 36 17 17 35 30 40 30 11 0
38 22 78 64 55 59 96 96 106 96 6 0 26 16 44 34 18 18 45 40 59 47 15 8 42 30
62 50 20 19 44 38 54 42 9 3 17 11 17 17 0 5 7 10 15 10 8 0 23 8 33 17 10 10
45 36 78 57 32 22 84 57 116 78 31 21 61 38 67 38 6 0 28 15 48 34 21 18 43
35 50 37 6 2 44 29 84 59 120 91 241 218 314 330 68 106 82 132 104 196 11 34
37 100 56 145 20 46 52 122 72 169 19 47 41 99 48 115 42 95 112 378 135 545
16 110 22 130 52 155 34 29 46 31 54 10 4 -10 19 -15 48 -14 39 1 39 2 11 9
-27 7 -25 8 17 9 26 0 50 -4 53 -9 4 -6 10 -8 14 -6 3 3 34 7 66 11 158 17
158 17 155 161 -6 421 -9 557 -14 694 -10 245 -9 251 14 281 11 16 20 36 20
47 0 10 4 22 9 27 16 18 40 138 46 235 8 115 35 273 75 435 75 304 74 606 -3
715 -9 13 -17 35 -17 48 0 18 -4 23 -15 18 -19 -7 -56 61 -39 72 6 4 10 32 11
63 0 68 31 140 79 186 39 37 41 47 14 70 -25 22 -29 100 -5 109 17 7 19 26 6
52 -29 56 -34 87 -37 216 -2 129 -1 139 16 143 25 7 35 40 19 59 -7 9 -12 29
-11 45 1 16 -3 39 -9 51 -6 12 -11 41 -11 65 1 25 -3 52 -7 61 -5 9 -14 46
-20 82 -18 101 -29 162 -40 203 -6 24 -5 39 1 43 6 4 6 9 1 13 -5 3 -15 33
-22 66 -7 33 -18 74 -25 90 -12 27 -24 61 -74 205 -8 25 -21 59 -28 75 -7 17
-18 65 -24 107 -7 42 -22 92 -33 110 -11 18 -31 53 -45 78 -22 42 -23 46 -8
72 15 24 15 31 2 63 -8 19 -19 35 -24 35 -11 0 -42 65 -42 90 0 10 5 20 12 22
8 3 8 12 1 34 -7 22 -16 29 -37 29 -28 1 -49 22 -39 38 3 5 -4 15 -15 23 -21
14 -45 72 -46 111 -1 13 -15 31 -36 45 -21 14 -36 34 -38 48 -2 13 -15 37 -28
53 -13 16 -24 37 -24 48 0 12 -7 19 -18 19 -10 0 -29 13 -42 30 -14 16 -30 29
-37 30 -19 0 -62 63 -80 116 -18 55 -118 191 -145 200 -10 3 -18 9 -18 14 0
21 -100 116 -183 173 -73 50 -114 70 -197 96 -94 30 -198 84 -216 112 -4 6
-30 22 -58 35 -67 30 -130 91 -170 164 -29 53 -45 68 -85 81 -20 6 -47 21 -61
34 -23 21 -84 55 -155 87 -16 7 -34 18 -40 24 -5 6 -32 17 -60 23 -27 7 -60
22 -73 34 -17 16 -37 22 -75 23 -29 1 -72 5 -97 8 -25 3 -67 8 -94 11 -26 3
-58 12 -69 20 -12 8 -35 15 -52 15 -17 0 -35 4 -40 9 -6 5 -39 14 -75 19 -36
6 -76 13 -90 17 -42 13 -166 12 -191 0z m-495 -5570 c-1 -99 -10 -152 -29
-175 -6 -8 -21 -34 -31 -56 -23 -49 -71 -89 -90 -73 -9 7 -19 7 -31 0 -16 -8
-21 -4 -36 31 -16 36 -20 39 -45 32 -40 -11 -86 -10 -94 1 -4 6 -15 1 -27 -12
-11 -11 -17 -24 -13 -28 8 -8 -26 -35 -44 -35 -18 0 -11 99 11 175 19 68 77
171 131 236 28 34 46 46 77 51 22 4 43 11 46 15 10 13 71 9 71 -4 0 -21 17
-14 23 9 6 20 10 17 44 -28 38 -49 38 -50 37 -139z"/>
<path d="M4777 11010 c-13 -55 -15 -86 -6 -103 7 -13 6 -19 -6 -23 -19 -8 -20
-24 0 -24 8 0 15 -7 15 -16 0 -8 5 -12 10 -9 6 3 10 -1 10 -10 0 -12 -5 -15
-16 -11 -11 4 -15 2 -11 -8 3 -8 -8 -55 -24 -105 -16 -50 -29 -109 -29 -131 0
-22 -7 -57 -15 -77 -18 -42 -20 -89 -4 -99 6 -3 8 -16 4 -28 -3 -11 -8 -52
-11 -91 -3 -38 -11 -92 -18 -120 -22 -89 -15 -140 57 -415 8 -30 18 -75 21
-100 4 -24 11 -49 15 -55 10 -12 25 -125 23 -175 0 -19 3 -39 8 -45 5 -7 12
-51 15 -100 3 -48 9 -93 14 -99 9 -11 12 -88 8 -232 -2 -63 -5 -73 -30 -96
l-28 -26 10 -114 c14 -168 82 -448 146 -608 19 -47 44 -121 56 -165 34 -126
40 -138 33 -65 -4 36 -5 94 -4 130 9 164 2 343 -20 585 -13 139 -24 418 -21
520 7 236 7 363 1 385 -4 14 -3 36 2 50 5 13 9 43 10 67 0 24 5 46 10 49 5 3
9 34 8 67 -1 34 2 102 6 151 5 67 4 90 -6 96 -10 6 -11 14 -1 37 12 29 12 83
0 83 -12 0 -22 34 -24 83 -1 28 -7 52 -15 57 -11 7 -10 13 3 34 20 29 22 45 5
28 -8 -8 -18 -6 -40 10 -20 14 -26 24 -19 31 5 5 7 22 4 38 -3 17 1 36 11 50
25 36 21 50 -10 38 -15 -5 -29 -7 -31 -5 -3 3 14 44 37 92 24 50 39 95 36 107
-2 10 4 48 15 84 17 54 18 68 8 93 -17 36 -37 28 -45 -18 -4 -21 -12 -44 -19
-52 -7 -8 -15 -41 -18 -73 -5 -65 -23 -93 -55 -83 -27 9 -46 58 -38 103 3 21
8 56 10 78 2 22 11 60 20 84 12 30 14 47 6 56 -5 6 -7 15 -3 18 3 4 -3 7 -14
7 -20 0 -36 27 -46 75 -3 18 -5 17 -10 -5z"/>
<path d="M9800 5077 c0 -8 9 -40 21 -73 11 -32 21 -84 21 -114 1 -47 -6 -68
-47 -145 -26 -49 -61 -106 -79 -126 -17 -20 -44 -60 -61 -89 -16 -28 -49 -76
-72 -105 -24 -30 -43 -57 -43 -60 0 -4 -11 -20 -25 -37 -14 -16 -25 -36 -25
-43 0 -8 -9 -19 -20 -25 -11 -6 -26 -25 -34 -43 -7 -18 -22 -41 -32 -52 -17
-18 -52 -70 -120 -175 -38 -60 -145 -242 -182 -310 -19 -36 -52 -94 -73 -129
-22 -34 -39 -69 -39 -76 0 -7 -8 -23 -18 -36 -16 -20 -36 -59 -66 -129 -4 -8
-26 -51 -50 -95 -37 -68 -175 -332 -210 -402 -6 -13 -14 -23 -18 -23 -5 0 -8
-9 -8 -19 0 -11 -6 -26 -13 -33 -7 -7 -21 -33 -32 -58 -10 -25 -27 -56 -37
-69 -10 -13 -18 -29 -18 -36 0 -7 -9 -24 -21 -39 l-21 -26 -47 37 c-26 21 -79
74 -118 118 -136 153 -380 377 -480 442 -28 18 -58 41 -65 51 -7 10 -24 25
-37 31 -13 7 -44 28 -68 47 -25 19 -49 34 -54 34 -5 0 -33 16 -62 35 -35 23
-70 36 -107 42 -30 4 -57 6 -60 5 -169 -62 -215 -70 -280 -49 -25 8 -75 20
-112 26 -56 10 -135 41 -231 92 -27 14 -186 -13 -292 -51 -72 -26 -291 -133
-351 -172 -184 -119 -243 -166 -384 -311 -302 -311 -448 -455 -468 -461 -12
-4 -22 -12 -22 -17 0 -5 -9 -9 -21 -9 -17 0 -19 4 -13 23 9 29 32 76 54 107
10 14 21 36 25 50 4 14 11 27 15 30 3 3 21 43 39 90 18 47 39 99 47 117 8 17
14 35 14 40 0 5 5 14 12 21 6 6 13 22 15 34 2 13 6 30 10 38 4 8 12 44 19 80
35 176 39 210 54 550 9 201 13 226 84 520 19 80 42 192 50 250 14 93 42 237
61 311 19 76 -56 8 -150 -136 -28 -44 -81 -127 -117 -185 -173 -279 -245 -379
-277 -387 -29 -7 -240 -86 -286 -107 -41 -19 -378 -146 -388 -146 -4 0 -26 -9
-50 -19 -23 -10 -51 -21 -62 -24 -11 -3 -78 -26 -150 -52 -278 -98 -368 -126
-433 -135 -37 -6 -81 -13 -99 -16 -63 -12 -63 -16 -63 533 -1 365 -4 495 -13
506 -8 11 -36 17 -92 21 -44 3 -595 8 -1225 11 -630 3 -1331 8 -1558 10 l-412
4 -17 -26 c-15 -23 -17 -91 -20 -707 -2 -436 -8 -696 -14 -722 -10 -38 -15
-43 -55 -54 -48 -14 -106 -8 -148 14 -14 7 -37 11 -51 8 l-25 -4 0 -1524 0
-1524 2458 0 c1351 0 2462 4 2468 8 5 4 18 23 28 42 10 19 25 48 33 64 12 22
13 31 4 34 -9 3 -9 7 0 18 6 8 8 25 5 40 -6 21 -4 25 8 21 12 -5 16 1 17 26 3
77 36 217 51 217 4 0 8 8 8 19 0 11 9 21 23 25 19 5 20 8 7 19 -16 12 -13 78
3 77 22 -1 27 1 27 11 0 5 -4 7 -10 4 -5 -3 -10 1 -10 9 0 8 5 18 11 22 8 4 7
9 -2 15 -10 7 -11 11 -3 16 6 5 15 23 19 42 4 19 14 41 22 50 9 9 13 25 9 42
-7 35 11 143 24 147 5 2 10 10 10 18 0 8 5 14 10 14 6 0 10 9 10 20 0 11 7 20
16 20 8 0 12 5 9 10 -4 6 -11 7 -17 4 -17 -10 2 39 20 54 9 7 16 28 17 50 0
28 5 37 17 36 9 -1 17 6 18 15 2 48 8 79 15 90 4 8 2 17 -6 22 -11 7 -11 9 3
9 11 0 15 7 13 25 -1 17 3 25 13 25 11 0 12 3 4 13 -13 15 -12 58 1 50 5 -3
13 1 18 8 13 21 11 29 -8 29 -17 1 -17 1 0 11 14 8 17 18 12 40 -4 16 -2 29 3
29 5 0 10 10 10 23 0 32 21 105 32 112 6 3 10 1 10 -6 0 -10 3 -10 12 -1 8 8
9 18 1 35 -10 22 -8 26 14 36 13 6 23 17 20 24 -2 6 5 20 16 29 25 22 28 22
21 3 -4 -8 -1 -15 5 -15 6 0 11 9 11 20 0 13 7 20 20 20 11 0 20 -4 20 -10 0
-5 -5 -10 -11 -10 -5 0 -8 -4 -4 -10 3 -5 13 -6 21 -3 9 3 20 0 25 -8 7 -12
11 -11 26 4 16 16 16 17 0 17 -9 0 -17 5 -17 10 0 7 13 8 37 4 32 -6 36 -5 31
13 -3 13 2 22 18 30 19 9 23 7 27 -8 3 -11 -1 -20 -12 -22 -13 -4 -13 -5 2 -6
10 0 16 -5 12 -11 -3 -5 -12 -7 -20 -3 -8 3 -15 0 -15 -6 0 -6 -7 -11 -15 -11
-8 0 -15 -4 -15 -10 0 -13 1 -13 44 5 32 14 36 14 36 0 0 -9 -10 -15 -22 -16
-16 -1 -18 -3 -7 -6 20 -5 21 -53 1 -53 -7 0 -10 5 -7 10 3 6 1 10 -4 10 -6 0
-11 -4 -11 -10 0 -5 -8 -10 -17 -11 -10 -1 2 -7 26 -15 58 -18 59 -21 20 -33
l-34 -9 34 -1 c30 -1 32 -3 20 -18 -11 -13 -11 -17 -1 -20 6 -3 9 -9 6 -14 -3
-6 0 -17 7 -25 10 -12 9 -13 -3 -9 -10 4 -17 -2 -22 -17 -10 -40 -7 -66 11
-72 13 -5 14 -9 4 -19 -9 -9 -14 -9 -20 2 -6 9 -11 10 -15 2 -4 -6 -3 -11 2
-11 19 0 22 -33 6 -51 -10 -11 -13 -19 -8 -20 5 0 -2 -5 -16 -10 -25 -10 -25
-11 -5 -25 19 -14 19 -15 -4 -12 -28 4 -40 -18 -14 -25 16 -4 16 -5 1 -6 -10
-1 -15 -7 -12 -14 2 -7 -4 -21 -15 -31 -16 -15 -19 -26 -14 -61 5 -37 3 -43
-15 -47 -19 -5 -21 -12 -17 -59 3 -44 0 -57 -16 -72 -15 -14 -18 -22 -10 -30
14 -14 14 -28 0 -24 -6 1 -14 -4 -16 -10 -3 -7 2 -13 11 -13 8 0 18 -5 22 -12
5 -8 2 -9 -9 -5 -15 6 -22 -3 -18 -26 0 -4 -5 -7 -13 -7 -10 0 -13 -13 -11
-50 1 -27 -1 -50 -6 -50 -5 0 -9 -7 -9 -15 0 -20 -29 -78 -44 -87 -6 -4 -7 -8
-2 -8 6 0 0 -9 -12 -20 -12 -12 -22 -27 -22 -34 0 -7 -9 -23 -20 -36 -11 -13
-20 -29 -20 -36 0 -7 -10 -16 -21 -19 -16 -5 -18 -9 -9 -15 20 -13 3 -59 -26
-70 -14 -6 -22 -15 -19 -20 4 -6 2 -16 -3 -23 -5 -7 -20 -43 -33 -81 -12 -38
-33 -81 -46 -96 -13 -15 -23 -35 -23 -44 0 -9 -4 -24 -9 -34 -18 -35 -49 -108
-59 -139 l-10 -33 844 0 c491 0 844 4 844 9 0 15 140 134 148 127 7 -8 -13
-27 -98 -98 l-45 -38 4248 0 4247 0 0 244 c0 201 -3 251 -16 287 -12 32 -19
97 -24 234 -5 119 -13 214 -24 255 -19 76 -56 291 -56 325 0 22 -27 121 -65
238 -24 72 -78 157 -138 218 -127 130 -326 229 -459 229 -36 0 -53 8 -103 45
-69 52 -306 172 -545 275 -91 39 -210 91 -265 115 -55 24 -140 60 -190 80 -49
20 -108 44 -130 54 -22 10 -103 41 -180 69 -921 331 -1400 557 -2097 991 -101
62 -225 136 -276 163 -95 51 -101 57 -254 243 -19 23 -129 173 -269 365 -47
64 -160 287 -209 410 -60 152 -114 216 -207 244 -16 5 -23 3 -23 -7z m-3225
-1963 c39 -36 90 -85 115 -110 41 -40 70 -58 55 -34 -3 6 -1 10 5 10 7 0 10
-6 7 -14 -3 -8 0 -20 8 -26 8 -6 23 -27 35 -46 l20 -35 -52 28 c-29 15 -60 33
-68 39 -41 33 -224 227 -226 239 -5 31 34 12 101 -51z m-345 -89 c37 -36 49
-42 67 -34 16 6 27 4 38 -7 8 -8 19 -12 25 -9 5 3 10 1 10 -4 0 -14 37 -14 45
-1 5 8 11 7 21 -1 17 -14 19 -33 2 -23 -7 5 -8 3 -4 -5 6 -9 12 -8 26 4 14 13
19 13 23 2 7 -20 -26 -37 -78 -39 l-45 -1 22 -26 c12 -14 43 -47 67 -73 25
-26 42 -50 38 -54 -3 -3 -31 9 -62 27 -78 47 -93 55 -150 79 -27 12 -54 27
-60 33 -5 7 -32 30 -59 51 -41 33 -51 37 -67 28 -21 -14 -49 -6 -49 13 0 18
23 32 28 17 7 -21 25 -13 19 8 -7 28 47 73 77 64 11 -3 41 -25 66 -49z m-5500
-1089 c14 0 42 4 63 8 30 7 37 5 37 -7 0 -25 -55 -57 -97 -58 -145 -2 -285 3
-328 13 l-49 11 44 13 c25 8 61 13 80 13 39 -1 66 4 76 14 4 4 39 4 78 0 39
-4 82 -7 96 -7z m7006 -127 c-2 -39 -7 -73 -10 -77 -12 -11 -5 -41 12 -51 16
-10 16 -10 0 -11 -21 0 -60 -72 -64 -115 -1 -16 -10 -48 -20 -70 -17 -40 -22
-58 -28 -105 -2 -14 -9 -38 -15 -53 -6 -16 -11 -37 -11 -48 0 -11 -6 -32 -14
-47 -7 -15 -16 -45 -20 -67 -4 -22 -14 -60 -21 -85 -16 -54 -31 -113 -50 -195
-33 -149 -50 -205 -60 -202 -5 2 -9 16 -7 30 3 28 -12 37 -22 15 -3 -7 -4 -2
-1 13 3 17 -2 31 -16 43 -12 10 -18 24 -15 33 9 24 -10 40 -43 35 -23 -3 -28
-8 -23 -25 4 -17 2 -20 -8 -10 -7 6 -19 9 -26 6 -8 -3 -14 -1 -14 5 0 5 9 12
20 15 11 3 20 12 20 20 0 8 -9 17 -20 20 -13 3 -20 0 -20 -8 0 -8 -4 -16 -9
-19 -4 -3 -6 6 -3 19 3 16 0 25 -8 25 -8 0 -5 12 8 34 19 33 19 46 0 46 -5 0
-6 -4 -3 -10 9 -15 -3 -12 -36 7 -34 20 -39 44 -7 35 14 -3 19 -2 14 6 -4 7
-15 12 -24 13 -10 1 -7 4 8 8 14 4 26 15 28 24 3 13 -1 15 -15 10 -10 -4 -21
-11 -25 -17 -5 -6 -8 -1 -8 11 0 14 5 21 13 18 15 -7 13 131 -3 150 -6 7 -8
20 -4 29 9 23 23 10 16 -16 -3 -14 -2 -19 6 -14 18 11 14 47 -6 53 -20 5 -28
43 -9 43 7 0 14 15 15 33 2 17 7 34 13 36 5 1 2 9 -8 16 -17 13 -17 14 0 32 9
11 17 25 17 32 0 7 5 9 13 5 6 -4 4 1 -5 12 -21 24 -10 47 18 38 14 -4 15 -3
5 4 -10 7 -10 11 -1 17 7 4 16 2 21 -6 6 -11 11 -11 21 -1 9 9 9 12 -4 12 -26
0 -18 50 10 57 21 5 24 11 26 58 1 13 7 19 19 17 9 -2 17 2 17 8 0 6 4 9 9 5
5 -3 11 5 13 17 2 16 11 24 28 26 14 2 30 10 36 18 7 8 16 14 20 13 15 -2 54
13 54 21 0 5 -6 11 -12 13 -8 4 -7 6 4 6 9 1 24 -6 33 -15 15 -15 17 -15 22 5
6 22 27 28 38 11 9 -14 35 7 35 27 0 8 5 11 10 8 6 -3 10 0 10 7 0 9 13 15 35
16 l35 3 -4 -72z m-1656 -23 c0 -3 -11 -17 -25 -31 -30 -33 -62 -135 -84 -270
-5 -27 -20 -86 -34 -130 -14 -44 -37 -127 -52 -185 -30 -118 -53 -190 -66
-205 -5 -5 -9 -18 -9 -30 0 -11 -9 -34 -19 -51 -10 -17 -22 -46 -26 -65 -4
-18 -25 -62 -46 -97 -22 -35 -39 -67 -39 -71 0 -4 -9 -16 -19 -28 -10 -11 -26
-34 -35 -52 -22 -41 -54 -73 -66 -66 -6 4 -10 1 -10 -4 0 -6 -7 -11 -16 -11
-12 0 -14 7 -9 33 4 17 11 33 16 35 5 2 11 20 15 40 4 20 15 49 25 64 11 14
19 32 19 40 0 7 18 40 40 73 22 33 40 64 40 68 0 5 16 28 36 50 56 66 102 175
131 310 37 177 37 178 81 346 22 84 45 158 51 164 6 6 11 18 11 26 0 25 32 51
62 51 15 0 28 -2 28 -4z"/>
</g>
</svg>
